<svg width="135" height="40" viewBox="0 0 135 40" fill="none" xmlns="http://www.w3.org/2000/svg">
<path d="M8.66869 39.9979C8.31988 39.9979 7.97949 39.9938 7.63341 39.9867C6.91647 39.9782 6.20121 39.9212 5.4935 39.8162C4.83359 39.7124 4.19431 39.5193 3.59676 39.2432C3.00468 38.9695 2.46466 38.6106 1.99738 38.1802C1.52334 37.7549 1.12868 37.2616 0.829041 36.7199C0.526098 36.1746 0.316443 35.5902 0.20738 34.9869C0.089602 34.3387 0.0258789 33.6833 0.0167608 33.0262C0.00950236 32.8057 0 32.0714 0 32.0714V7.91524C0 7.91524 0.0101206 7.19223 0.016818 6.97982C0.0255486 6.32383 0.088901 5.66941 0.206327 5.0222C0.315591 4.41729 0.525408 3.83117 0.828514 3.28415C1.12705 2.7428 1.51952 2.24915 1.99071 1.82232C2.46137 1.39143 3.00311 1.03064 3.5962 0.753121C4.19238 0.477981 4.83045 0.286241 5.48902 0.184325C6.19906 0.0782559 6.9168 0.0209098 7.63622 0.012768L8.66926 0H126.325L127.371 0.0132804C128.083 0.0210177 128.795 0.0778522 129.498 0.1833C130.163 0.286495 130.808 0.479573 131.411 0.756185C132.599 1.31547 133.566 2.20032 134.176 3.2867C134.474 3.82995 134.681 4.41128 134.789 5.01097C134.907 5.66349 134.974 6.32306 134.988 6.98442C134.991 7.28056 134.991 7.59866 134.991 7.91524C135 8.30737 135 8.68061 135 9.05692V30.942C135 31.3219 135 31.6926 134.991 32.0663C134.991 32.4064 134.991 32.7179 134.986 33.0385C134.973 33.688 134.908 34.3358 134.791 34.9767C134.684 35.5843 134.475 36.1733 134.173 36.723C133.871 37.2588 133.478 37.7478 133.01 38.172C132.542 38.6047 132.001 38.9657 131.408 39.2412C130.806 39.5194 130.163 39.7132 129.498 39.8162C128.79 39.9217 128.075 39.9788 127.358 39.9867C127.023 39.9938 126.672 39.9979 126.331 39.9979L125.09 40L8.66869 39.9979Z" fill="black"/>
<path d="M27.3575 20.3136C27.3825 18.5396 28.4007 16.901 30.0554 15.9718C29.0068 14.6039 27.3134 13.7678 25.4861 13.7155C23.5636 13.5312 21.6998 14.7663 20.7202 14.7663C19.7215 14.7663 18.2132 13.7338 16.5889 13.7644C14.4518 13.8274 12.5078 14.9103 11.468 16.6169C9.25387 20.1183 10.9054 25.2642 13.0264 28.0945C14.0876 29.4804 15.3278 31.0285 16.9506 30.9736C18.5386 30.9135 19.1317 30.0488 21.0485 30.0488C22.9476 30.0488 23.504 30.9736 25.1597 30.9387C26.8637 30.9135 27.9373 29.5467 28.9612 28.1476C29.7237 27.1601 30.3104 26.0687 30.6996 24.9138C28.6758 24.132 27.3599 22.3207 27.3575 20.3136Z" fill="white"/>
<path d="M24.2301 11.8537C25.1592 10.835 25.617 9.52562 25.5061 8.20361C24.0867 8.33978 22.7755 8.95942 21.8339 9.93906C20.904 10.9056 20.433 12.1701 20.5245 13.4541C21.963 13.4676 23.3287 12.8778 24.2301 11.8537Z" fill="white"/>
<path fill-rule="evenodd" clip-rule="evenodd" d="M42.0117 27.4644H47.4308L48.7311 30.9742H51.0655L45.9327 17.9888H43.5479L38.415 30.9742H40.7103L42.0117 27.4644ZM46.8685 25.8446H42.573L44.6917 20.1484H44.751L46.8685 25.8446Z" fill="white"/>
<path fill-rule="evenodd" clip-rule="evenodd" d="M57.8251 31.0736C60.4268 31.0736 62.1508 29.1833 62.1508 26.2413C62.1508 23.3074 60.4167 21.408 57.786 21.408C56.4323 21.3681 55.1643 22.0112 54.4856 23.0817H54.4465V21.5071H52.387V34.1065H54.5146V29.4172H54.5639C55.2137 30.4945 56.4804 31.1378 57.8251 31.0736ZM57.2248 23.064C58.8794 23.064 59.9639 24.3241 59.9639 26.2409C59.9639 28.175 58.8794 29.426 57.2248 29.426C55.5991 29.426 54.5057 28.1485 54.5057 26.2409C54.5057 24.3507 55.5991 23.064 57.2248 23.064Z" fill="white"/>
<path fill-rule="evenodd" clip-rule="evenodd" d="M69.2335 31.0735C71.8352 31.0735 73.5592 29.1833 73.5592 26.2413C73.5592 23.3074 71.8251 21.408 69.1943 21.408C67.8407 21.3681 66.5726 22.0112 65.8939 23.0817H65.8548V21.5071H63.7954V34.1065H65.923V29.4172H65.9722C66.622 30.4945 67.8887 31.1378 69.2335 31.0735ZM68.6331 23.064C70.2878 23.064 71.3723 24.3241 71.3723 26.2409H71.3723C71.3723 28.175 70.2878 29.426 68.6331 29.426C67.0075 29.426 65.9141 28.1485 65.9141 26.2409C65.9141 24.3507 67.0075 23.064 68.6331 23.064Z" fill="white"/>
<path d="M81.0992 27.3564C81.2568 28.6441 82.6264 29.4896 84.498 29.4896C86.2913 29.4896 87.5815 28.644 87.5815 27.483C87.5815 26.475 86.8034 25.8715 84.9609 25.4579L83.1183 25.0525C80.5077 24.4766 79.2958 23.3614 79.2958 21.5519C79.2958 19.3114 81.4335 17.7725 84.4689 17.7725C87.473 17.7725 89.5325 19.3114 89.6018 21.5519H87.454C87.3255 20.256 86.1526 19.4738 84.4387 19.4738C82.7248 19.4738 81.552 20.2652 81.552 21.4171C81.552 22.3351 82.301 22.8753 84.1335 23.2889L85.6998 23.6402C88.6168 24.2703 89.8287 25.3405 89.8287 27.2399C89.8287 29.6693 87.7101 31.1908 84.3403 31.1908C81.1875 31.1908 79.0587 29.705 78.9212 27.3563L81.0992 27.3564Z" fill="white"/>
<path d="M94.4205 19.2666V21.5071H96.3916V23.046H94.4205V28.2653C94.4205 29.0761 94.8152 29.454 95.6816 29.454C95.9156 29.4503 96.1493 29.4352 96.3815 29.409V30.9388C95.992 31.0052 95.596 31.0354 95.1998 31.0286C93.1012 31.0286 92.2828 30.3087 92.2828 28.4726V23.046H90.7757V21.5071H92.2828V19.2666H94.4205Z" fill="white"/>
<path fill-rule="evenodd" clip-rule="evenodd" d="M102.449 21.3906C99.4539 21.3906 97.5331 23.2625 97.5331 26.2413C97.5331 29.2282 99.4348 31.0919 102.449 31.0919C105.464 31.0919 107.366 29.2282 107.366 26.2413C107.366 23.2624 105.454 21.3906 102.449 21.3906ZM102.449 22.9922C104.173 22.9922 105.198 24.1982 105.198 26.2416H105.198C105.198 28.2932 104.173 29.49 102.449 29.49C100.725 29.49 99.701 28.2932 99.701 26.2416C99.701 24.2074 100.725 22.9922 102.449 22.9922Z" fill="white"/>
<path d="M109.12 21.507H111.15V23.1184H111.199C111.482 22.0811 112.522 21.3671 113.692 21.4079C113.937 21.4071 114.182 21.4315 114.421 21.4804V23.2981C114.111 23.2117 113.789 23.1721 113.465 23.1807C112.84 23.1575 112.234 23.3852 111.808 23.804C111.382 24.2228 111.177 24.7908 111.248 25.3589V30.9744H109.12L109.12 21.507Z" fill="white"/>
<path fill-rule="evenodd" clip-rule="evenodd" d="M119.767 31.0919C122.112 31.0919 123.944 29.9124 124.231 28.1938L122.21 28.1938C121.822 29.0722 120.849 29.6138 119.817 29.5254C119.042 29.5514 118.293 29.2724 117.76 28.7594C117.226 28.2463 116.96 27.5486 117.028 26.8438V26.7263H124.349V26.0605C124.349 23.19 122.546 21.3906 119.678 21.3906C116.762 21.3906 114.88 23.3166 114.88 26.2862C114.88 29.2466 116.752 31.0919 119.767 31.0919ZM122.22 25.3682L117.038 25.3682C117.036 24.729 117.314 24.1157 117.81 23.6644C118.306 23.2132 118.978 22.9616 119.678 22.9654C120.372 22.9517 121.041 23.2033 121.524 23.6594C122.007 24.1155 122.259 24.7349 122.22 25.3682Z" fill="white"/>
<path fill-rule="evenodd" clip-rule="evenodd" d="M44.7169 9.07034C44.0942 8.46977 43.2095 8.15589 42.3063 8.2151H39.8388V14.4546H42.3063C44.3411 14.4546 45.5206 13.3088 45.5206 11.3154C45.6345 10.4949 45.3396 9.67091 44.7169 9.07034ZM42.1878 13.5721H40.8998V9.09678H42.1878C42.8299 9.06423 43.4542 9.29547 43.8902 9.72725C44.3261 10.159 44.528 10.7462 44.4406 11.3281C44.5349 11.9124 44.3359 12.5044 43.8988 12.9398C43.4618 13.3751 42.8333 13.6074 42.1878 13.5721Z" fill="white"/>
<path fill-rule="evenodd" clip-rule="evenodd" d="M47.8626 9.99007C47.0739 10.4371 46.6308 11.2539 46.7192 12.0979C46.6291 12.9428 47.0718 13.7612 47.8612 14.2092C48.6506 14.6573 49.65 14.6573 50.4395 14.2092C51.2289 13.7612 51.6716 12.9428 51.5815 12.0979C51.6699 11.2539 51.2268 10.4371 50.4381 9.99007C49.6494 9.54302 48.6513 9.54302 47.8626 9.99007ZM49.152 10.4805C50.033 10.4805 50.535 11.0774 50.535 12.098H50.535C50.535 13.1228 50.033 13.7192 49.152 13.7192C48.2677 13.7192 47.7702 13.1269 47.7702 12.098C47.7702 11.0774 48.2677 10.4805 49.152 10.4805Z" fill="white"/>
<path d="M58.0448 14.4548H56.9894L55.9239 10.9868H55.8434L54.7824 14.4548H53.7371L52.3161 9.74609H53.348L54.2715 13.3391H54.3475L55.4074 9.74609H56.3835L57.4433 13.3391H57.5238L58.4429 9.74609H59.4603L58.0448 14.4548Z" fill="white"/>
<path d="M60.6554 9.74594H61.6348V10.494H61.7109C61.9752 9.94322 62.593 9.60633 63.2493 9.65505C63.7574 9.62016 64.2553 9.7982 64.6024 10.1389C64.9495 10.4796 65.1082 10.946 65.0336 11.4064V14.4546H64.0162V11.6397C64.0162 10.883 63.6562 10.5067 62.9038 10.5067C62.5591 10.4921 62.2247 10.6156 61.9881 10.845C61.7515 11.0743 61.6363 11.3866 61.6728 11.7V14.4546H60.6554L60.6554 9.74594Z" fill="white"/>
<path d="M66.6548 7.90771H67.6722V14.4546H66.6548V7.90771Z" fill="white"/>
<path fill-rule="evenodd" clip-rule="evenodd" d="M70.2301 9.99008C69.4413 10.4371 68.9982 11.254 69.0865 12.098C68.9965 12.943 69.4393 13.7613 70.2288 14.2093C71.0182 14.6573 72.0176 14.6573 72.8071 14.2093C73.5966 13.7613 74.0393 12.943 73.9494 12.098C74.0377 11.254 73.5945 10.4371 72.8058 9.99008C72.017 9.54302 71.0189 9.54302 70.2301 9.99008ZM71.5193 10.4805C72.4003 10.4805 72.9023 11.0774 72.9023 12.098H72.9023C72.9023 13.1228 72.4003 13.7192 71.5193 13.7192C70.635 13.7192 70.1375 13.1269 70.1375 12.098C70.1375 11.0774 70.635 10.4805 71.5193 10.4805Z" fill="white"/>
<path fill-rule="evenodd" clip-rule="evenodd" d="M76.9378 11.7171C75.7114 11.7865 75.0204 12.2751 75.0204 13.1227C75.0222 13.5246 75.2099 13.9071 75.5373 14.1756C75.8647 14.4441 76.3012 14.5735 76.7388 14.5319C77.3631 14.5583 77.9547 14.2759 78.2873 13.7926H78.3678V14.4544H79.3472V11.2371C79.3472 10.2425 78.6183 9.65479 77.3258 9.65479C76.1564 9.65479 75.3234 10.1735 75.2194 10.9823H76.2044C76.3174 10.6494 76.7109 10.459 77.2789 10.459C77.9743 10.459 78.3343 10.7398 78.3343 11.2371V11.6435L76.9378 11.7171ZM78.3343 12.3267V12.7203C78.312 13.0204 78.1574 13.2994 77.9057 13.4935C77.6541 13.6875 77.327 13.78 76.9994 13.7497C76.4459 13.7497 76.0434 13.5031 76.0434 13.0793C76.0434 12.6642 76.3654 12.4436 77.0754 12.4002L78.3343 12.3267Z" fill="white"/>
<path fill-rule="evenodd" clip-rule="evenodd" d="M82.8243 9.66775C81.5218 9.66775 80.6844 10.6103 80.6844 12.0982C80.6844 13.5896 81.5128 14.5322 82.8243 14.5322C83.4892 14.5545 84.1128 14.2381 84.4432 13.7106H84.5237V14.4546H85.4986V7.90771H84.4812V10.4938H84.4052C84.098 9.96196 83.482 9.64007 82.8243 9.66775ZM83.1128 13.6977C82.2508 13.6977 81.7354 13.0968 81.7354 12.098H81.7353C81.7353 11.1075 82.2563 10.5024 83.1128 10.5024C83.9647 10.5024 84.5002 11.1208 84.5002 12.1021C84.5002 13.0881 83.9703 13.6977 83.1128 13.6977Z" fill="white"/>
<path fill-rule="evenodd" clip-rule="evenodd" d="M90.8514 9.99007C90.0627 10.4371 89.6196 11.2539 89.708 12.0979C89.6179 12.9428 90.0606 13.7612 90.85 14.2092C91.6395 14.6573 92.6388 14.6573 93.4283 14.2092C94.2177 13.7612 94.6604 12.9428 94.5703 12.0979C94.6587 11.2539 94.2156 10.4371 93.4269 9.99007C92.6382 9.54302 91.6401 9.54302 90.8514 9.99007ZM92.1408 10.4805C93.0218 10.4805 93.5238 11.0774 93.5238 12.098C93.5238 13.1228 93.0218 13.7192 92.1408 13.7192C91.2565 13.7192 90.759 13.1269 90.759 12.098C90.759 11.0774 91.2565 10.4805 92.1408 10.4805Z" fill="white"/>
<path d="M95.9354 9.74594H96.9148V10.494H96.9908C97.2552 9.94322 97.873 9.60633 98.5293 9.65505C99.0374 9.62016 99.5353 9.7982 99.8824 10.1389C100.23 10.4796 100.388 10.946 100.314 11.4064V14.4546H99.2962V11.6397C99.2962 10.883 98.9362 10.5067 98.1838 10.5067C97.8391 10.4921 97.5047 10.6156 97.2681 10.845C97.0315 11.0743 96.9163 11.3866 96.9528 11.7V14.4546H95.9354V9.74594Z" fill="white"/>
<path d="M106.063 8.57373V9.7675H107.179V10.5502H106.063V12.9715C106.063 13.4647 106.285 13.6807 106.791 13.6807C106.921 13.6803 107.051 13.6732 107.179 13.6592V14.4333C106.997 14.4632 106.812 14.479 106.626 14.4808C105.495 14.4808 105.044 14.1172 105.044 13.2094V10.5502H104.226V9.76746H105.044V8.57373H106.063Z" fill="white"/>
<path d="M108.569 7.90771H109.578V10.5026H109.658C109.935 9.947 110.564 9.60968 111.23 9.65906C111.735 9.63395 112.226 9.81591 112.57 10.1554C112.913 10.4948 113.073 10.9565 113.005 11.4145V14.4546H111.987V11.6437C111.987 10.8916 111.603 10.5107 110.885 10.5107C110.531 10.4842 110.182 10.6017 109.932 10.8319C109.681 11.0621 109.555 11.3814 109.587 11.7045V14.4545H108.569L108.569 7.90771Z" fill="white"/>
<path fill-rule="evenodd" clip-rule="evenodd" d="M116.704 14.5453C117.711 14.6451 118.652 14.0713 118.938 13.1831L117.958 13.183C117.714 13.5829 117.23 13.8085 116.732 13.7539C116.348 13.7578 115.98 13.6136 115.719 13.3568C115.457 13.1 115.327 12.7543 115.359 12.4049V12.3529H118.999V12.0286C118.999 10.55 118.134 9.65486 116.699 9.65486C116.01 9.6495 115.352 9.91752 114.896 10.3895C114.44 10.8615 114.231 11.491 114.323 12.1149C114.229 12.7371 114.439 13.3656 114.897 13.8336C115.356 14.3016 116.017 14.5619 116.704 14.5453ZM117.963 11.6659H115.359C115.354 11.3412 115.493 11.0286 115.745 10.7989C115.996 10.5692 116.338 10.442 116.694 10.4461C117.045 10.4388 117.382 10.567 117.624 10.7993C117.866 11.0316 117.989 11.3463 117.963 11.6659Z" fill="white"/>
</svg>
